<svg width="22" height="22" viewBox="0 0 22 22" fill="none" xmlns="http://www.w3.org/2000/svg">
<path d="M8.29235 4V7.0625M8.29235 14.9375V18M15.4977 4H6.49325C3.04452 4 2.08104 4.805 2 7.9375C3.73787 7.9375 5.14257 9.31125 5.14257 11C5.14257 12.6887 3.73787 14.0538 2 14.0625C2.08104 17.195 3.04452 18 6.49325 18H15.4977C19.0995 18 20 17.125 20 13.625V8.375C20 4.875 19.0995 4 15.4977 4Z" stroke="#FB9C2A" stroke-width="1.5" stroke-linecap="round" stroke-linejoin="round"/>
<path d="M13.7738 8.55248L14.3422 9.69831C14.3972 9.80831 14.5072 9.89081 14.6263 9.90915L15.8913 10.0925C16.203 10.1383 16.3313 10.5233 16.1022 10.7433L15.1855 11.6325C15.0938 11.715 15.0572 11.8433 15.0755 11.9716L15.2955 13.2275C15.3505 13.5391 15.0205 13.7775 14.7455 13.6308L13.618 13.035C13.5623 13.0078 13.5012 12.9937 13.4392 12.9937C13.3773 12.9937 13.3162 13.0078 13.2605 13.035L12.133 13.6308C11.8488 13.7775 11.528 13.5391 11.583 13.2275L11.803 11.9716C11.8132 11.9104 11.8086 11.8477 11.7894 11.7886C11.7703 11.7296 11.7372 11.676 11.693 11.6325L10.7855 10.7433C10.7344 10.6937 10.6983 10.6308 10.6811 10.5617C10.664 10.4926 10.6665 10.4201 10.6885 10.3523C10.7104 10.2846 10.7509 10.2244 10.8053 10.1784C10.8597 10.1325 10.9259 10.1027 10.9963 10.0925L12.2613 9.90915C12.3897 9.89081 12.4905 9.81748 12.5455 9.69831L13.1047 8.55248C13.233 8.26831 13.6363 8.26831 13.7738 8.55248Z" stroke="#FB9C2A" stroke-linecap="round" stroke-linejoin="round"/>
</svg>
