<svg width="21" height="20" viewBox="0 0 21 20" fill="none" xmlns="http://www.w3.org/2000/svg">
<path d="M18.381 8.75002V12.9167C18.381 15.8334 16.71 17.0834 14.2034 17.0834H5.84841C3.3419 17.0834 1.6709 15.8334 1.6709 12.9167V7.08335C1.6709 4.16669 3.3419 2.91669 5.84841 2.91669H11.6969" stroke="#2C63BA" stroke-width="1.5" stroke-miterlimit="10" stroke-linecap="round" stroke-linejoin="round"/>
<path d="M5.84863 7.5L8.46376 9.58333C9.32433 10.2667 10.7363 10.2667 11.5969 9.58333L12.5828 8.8" stroke="#2C63BA" stroke-width="1.5" stroke-miterlimit="10" stroke-linecap="round" stroke-linejoin="round"/>
<path d="M16.2924 6.66667C17.446 6.66667 18.3811 5.73393 18.3811 4.58333C18.3811 3.43274 17.446 2.5 16.2924 2.5C15.1388 2.5 14.2036 3.43274 14.2036 4.58333C14.2036 5.73393 15.1388 6.66667 16.2924 6.66667Z" stroke="#2C63BA" stroke-width="1.5" stroke-miterlimit="10" stroke-linecap="round" stroke-linejoin="round"/>
</svg>
