<svg width="22" height="22" viewBox="0 0 22 22" fill="none" xmlns="http://www.w3.org/2000/svg">
<path fill-rule="evenodd" clip-rule="evenodd" d="M5.72933 3.20831C3.2085 3.20831 3.2085 3.39898 3.2085 5.72915V5.75206C3.2085 6.76681 3.2085 7.50015 3.45691 7.80998C3.69983 8.11065 4.42125 8.24998 5.72933 8.24998C7.03741 8.24998 7.75883 8.10973 8.00175 7.80906C8.25016 7.50015 8.25016 6.76681 8.25016 5.75115C8.25016 3.39898 8.25016 3.20831 5.72933 3.20831ZM5.72933 9.62498C4.18383 9.62498 3.02425 9.46273 2.38716 8.67165C1.8335 7.98506 1.8335 7.04823 1.8335 5.75206L2.521 5.72915H1.8335C1.8335 3.09831 1.99941 1.83331 5.72933 1.83331C9.45925 1.83331 9.62516 3.09831 9.62516 5.72915C9.62516 7.04731 9.62516 7.98506 9.0715 8.67165C8.43441 9.46273 7.27483 9.62498 5.72933 9.62498Z" fill="black"/>
<path fill-rule="evenodd" clip-rule="evenodd" d="M15.8128 3.20831C13.292 3.20831 13.292 3.39898 13.292 5.72915V5.75206C13.292 6.76681 13.292 7.50015 13.5404 7.80998C13.7833 8.11065 14.5047 8.24998 15.8128 8.24998C17.1209 8.24998 17.8423 8.10973 18.0852 7.80906C18.3337 7.50015 18.3337 6.76681 18.3337 5.75115C18.3337 3.39898 18.3337 3.20831 15.8128 3.20831ZM15.8128 9.62498C14.2673 9.62498 13.1077 9.46273 12.4707 8.67165C11.917 7.98506 11.917 7.04823 11.917 5.75206L12.6045 5.72915H11.917C11.917 3.09831 12.0829 1.83331 15.8128 1.83331C19.5427 1.83331 19.7087 3.09831 19.7087 5.72915C19.7087 7.04731 19.7087 7.98506 19.155 8.67165C18.5179 9.46273 17.3583 9.62498 15.8128 9.62498Z" fill="black"/>
<path fill-rule="evenodd" clip-rule="evenodd" d="M5.72933 13.2916C3.2085 13.2916 3.2085 13.4823 3.2085 15.8125V15.8354C3.2085 16.8501 3.2085 17.5835 3.45691 17.8933C3.69983 18.194 4.42125 18.3333 5.72933 18.3333C7.03741 18.3333 7.75883 18.193 8.00175 17.8924C8.25016 17.5835 8.25016 16.8501 8.25016 15.8345C8.25016 13.4823 8.25016 13.2916 5.72933 13.2916ZM5.72933 19.7083C4.18383 19.7083 3.02425 19.546 2.38716 18.755C1.8335 18.0684 1.8335 17.1315 1.8335 15.8354L2.521 15.8125H1.8335C1.8335 13.1816 1.99941 11.9166 5.72933 11.9166C9.45925 11.9166 9.62516 13.1816 9.62516 15.8125C9.62516 17.1306 9.62516 18.0684 9.0715 18.755C8.43441 19.546 7.27483 19.7083 5.72933 19.7083Z" fill="black"/>
<path fill-rule="evenodd" clip-rule="evenodd" d="M15.8128 13.2916C13.292 13.2916 13.292 13.4823 13.292 15.8125V15.8354C13.292 16.8501 13.292 17.5835 13.5404 17.8933C13.7833 18.194 14.5047 18.3333 15.8128 18.3333C17.1209 18.3333 17.8423 18.193 18.0852 17.8924C18.3337 17.5835 18.3337 16.8501 18.3337 15.8345C18.3337 13.4823 18.3337 13.2916 15.8128 13.2916ZM15.8128 19.7083C14.2673 19.7083 13.1077 19.546 12.4707 18.755C11.917 18.0684 11.917 17.1315 11.917 15.8354L12.6045 15.8125H11.917C11.917 13.1816 12.0829 11.9166 15.8128 11.9166C19.5427 11.9166 19.7087 13.1816 19.7087 15.8125C19.7087 17.1306 19.7087 18.0684 19.155 18.755C18.5179 19.546 17.3583 19.7083 15.8128 19.7083Z" fill="black"/>
</svg>
