<svg width="25" height="24" viewBox="0 0 25 24" fill="none" xmlns="http://www.w3.org/2000/svg">
<path d="M16.5 2H8.5C4.5 2 2.5 4 2.5 8V21C2.5 21.55 2.95 22 3.5 22H16.5C20.5 22 22.5 20 22.5 16V8C22.5 4 20.5 2 16.5 2Z" stroke="white" stroke-width="1.5" stroke-linecap="round" stroke-linejoin="round"/>
<path d="M13.4108 7.84003L8.22077 13.03C8.02077 13.23 7.83077 13.62 7.79077 13.9L7.51078 15.88C7.41078 16.6 7.91077 17.1 8.63077 17L10.6108 16.72C10.8908 16.68 11.2808 16.49 11.4808 16.29L16.6708 11.1C17.5608 10.21 17.9908 9.17003 16.6708 7.85003C15.3508 6.52003 14.3108 6.94003 13.4108 7.84003Z" stroke="white" stroke-width="1.5" stroke-miterlimit="10" stroke-linecap="round" stroke-linejoin="round"/>
<path d="M12.6699 8.58002C13.1099 10.15 14.3399 11.39 15.9199 11.83" stroke="white" stroke-width="1.5" stroke-miterlimit="10" stroke-linecap="round" stroke-linejoin="round"/>
</svg>
