<svg width="21" height="20" viewBox="0 0 21 20" fill="none" xmlns="http://www.w3.org/2000/svg">
<path id="Vector" d="M5.1 12.7001H3.075C2.65729 12.7001 2.25668 12.8661 1.96131 13.1614C1.66594 13.4568 1.5 13.8574 1.5 14.2751C1.5 14.6928 1.66594 15.0934 1.96131 15.3888C2.25668 15.6842 2.65729 15.8501 3.075 15.8501H11.625C12.0427 15.8501 12.4433 16.0161 12.7387 16.3114C13.0341 16.6068 13.2 17.0074 13.2 17.4251C13.2 17.8428 13.0341 18.2434 12.7387 18.5388C12.4433 18.8342 12.0427 19.0001 11.625 19.0001H9.60001M14.9514 2.0558C15.4797 1.5275 15.7434 1.2638 16.0368 1.1369C16.4589 0.954203 16.9368 0.954203 17.3589 1.1369C17.6514 1.2629 17.916 1.5275 18.4443 2.0558C18.9726 2.58411 19.2363 2.84871 19.3632 3.14121C19.5459 3.56331 19.5459 4.04121 19.3632 4.46331C19.2372 4.75581 18.9726 5.02041 18.4443 5.54871L13.9245 10.0685C12.8112 11.1818 12.255 11.738 11.5575 12.0683C10.86 12.3986 10.0761 12.4751 8.50921 12.6299L7.80001 12.7001L7.87021 11.9909C8.02501 10.424 8.10151 9.64011 8.43181 8.94261C8.76211 8.24511 9.31831 7.68891 10.4316 6.57561L14.9514 2.0558Z" stroke="#2C63BA" stroke-width="1.5" stroke-linecap="round" stroke-linejoin="round"/>
</svg>
