<svg width="18" height="18" viewBox="0 0 18 18" fill="none" xmlns="http://www.w3.org/2000/svg">
<g id="Group 1000004278">
<path id="Vector" d="M9.00034 0C9.20494 0 9.40117 0.0812752 9.54584 0.225946C9.69052 0.370617 9.7718 0.566833 9.7718 0.771429C9.7718 0.976024 9.69052 1.17224 9.54584 1.31691C9.40117 1.46158 9.20494 1.54286 9.00034 1.54286C7.02251 1.54286 5.12568 2.32852 3.72714 3.727C2.32861 5.12549 1.54292 7.02224 1.54292 9C1.54292 10.9778 2.32861 12.8745 3.72714 14.273C5.12568 15.6715 7.02251 16.4571 9.00034 16.4571C9.20494 16.4571 9.40117 16.5384 9.54584 16.6831C9.69052 16.8278 9.7718 17.024 9.7718 17.2286C9.7718 17.4332 9.69052 17.6294 9.54584 17.7741C9.40117 17.9187 9.20494 18 9.00034 18C6.6133 18 4.32403 17.0518 2.63614 15.364C0.948247 13.6761 0 11.3869 0 9C0 6.61305 0.948247 4.32387 2.63614 2.63604C4.32403 0.948212 6.6133 0 9.00034 0Z" fill="#FF0000"/>
<path id="Vector_2" d="M13.5984 6.45944C13.4622 6.3132 13.388 6.11978 13.3915 5.91993C13.395 5.72008 13.476 5.5294 13.6173 5.38806C13.7587 5.24672 13.9494 5.16576 14.1492 5.16223C14.3491 5.1587 14.5425 5.23289 14.6888 5.36915L17.7746 8.45487C17.9191 8.59951 18.0002 8.79558 18.0002 9.00001C18.0002 9.20444 17.9191 9.40051 17.7746 9.54515L14.6888 12.6309C14.6181 12.7067 14.533 12.7674 14.4383 12.8096C14.3437 12.8518 14.2416 12.8744 14.138 12.8763C14.0344 12.8781 13.9315 12.859 13.8354 12.8203C13.7394 12.7815 13.6521 12.7237 13.5789 12.6504C13.5056 12.5772 13.4478 12.4899 13.409 12.3939C13.3702 12.2978 13.3512 12.1949 13.353 12.0914C13.3549 11.9878 13.3775 11.8856 13.4197 11.791C13.4619 11.6964 13.5226 11.6112 13.5984 11.5406L15.3677 9.77144H6.94333C6.73873 9.77144 6.54251 9.69016 6.39783 9.54549C6.25315 9.40082 6.17188 9.20461 6.17188 9.00001C6.17188 8.79541 6.25315 8.5992 6.39783 8.45453C6.54251 8.30986 6.73873 8.22858 6.94333 8.22858H15.3677L13.5984 6.45944Z" fill="#FF0000"/>
</g>
</svg>
