<svg width="21" height="20" viewBox="0 0 21 20" fill="none" xmlns="http://www.w3.org/2000/svg">
<path d="M19.1898 8.75002V12.9167C19.1898 15.8334 17.5188 17.0834 15.0123 17.0834H6.65725C4.15074 17.0834 2.47974 15.8334 2.47974 12.9167V7.08335C2.47974 4.16669 4.15074 2.91669 6.65725 2.91669H12.5058" stroke="#84818A" stroke-width="1.5" stroke-miterlimit="10" stroke-linecap="round" stroke-linejoin="round"/>
<path d="M6.65747 7.5L9.2726 9.58333C10.1332 10.2667 11.5452 10.2667 12.4057 9.58333L13.3916 8.8" stroke="#84818A" stroke-width="1.5" stroke-miterlimit="10" stroke-linecap="round" stroke-linejoin="round"/>
<path d="M17.1012 6.66667C18.2548 6.66667 19.19 5.73393 19.19 4.58333C19.19 3.43274 18.2548 2.5 17.1012 2.5C15.9476 2.5 15.0125 3.43274 15.0125 4.58333C15.0125 5.73393 15.9476 6.66667 17.1012 6.66667Z" stroke="#84818A" stroke-width="1.5" stroke-miterlimit="10" stroke-linecap="round" stroke-linejoin="round"/>
</svg>
