<svg width="23" height="16" viewBox="0 0 23 16" fill="none" xmlns="http://www.w3.org/2000/svg">
<path d="M20.1573 1H17.4014C16.6404 1 16.0234 1.48214 16.0234 2.0769V13.9228C16.0234 14.5176 16.6404 14.9997 17.4014 14.9997H20.1573C20.9183 14.9997 21.5352 14.5176 21.5352 13.9228V2.0769C21.5352 1.48214 20.9183 1 20.1573 1Z" stroke="black" stroke-width="1.2" stroke-linejoin="round"/>
<path d="M12.6455 7.46143H9.88966C9.12864 7.46143 8.51172 7.94357 8.51172 8.53833V13.9228C8.51172 14.5176 9.12864 14.9997 9.88966 14.9997H12.6455C13.4066 14.9997 14.0235 14.5176 14.0235 13.9228V8.53833C14.0235 7.94357 13.4066 7.46143 12.6455 7.46143Z" stroke="black" stroke-width="1.2" stroke-linejoin="round"/>
<path d="M5.13383 3.15405H2.37794C1.61693 3.15405 1 3.6362 1 4.23095V13.9231C1 14.5178 1.61693 15 2.37794 15H5.13383C5.89485 15 6.51177 14.5178 6.51177 13.9231V4.23095C6.51177 3.6362 5.89485 3.15405 5.13383 3.15405Z" stroke="black" stroke-width="1.2" stroke-linejoin="round"/>
</svg>
