<svg width="21" height="20" viewBox="0 0 21 20" fill="none" xmlns="http://www.w3.org/2000/svg">
<path d="M18.7008 9.58335V12.9167C18.7008 15.8334 17.0298 17.0834 14.5233 17.0834H6.16824C3.66173 17.0834 1.99072 15.8334 1.99072 12.9167V7.08335C1.99072 4.16669 3.66173 2.91669 6.16824 2.91669H10.3458" stroke="#84818A" stroke-width="1.5" stroke-miterlimit="10" stroke-linecap="round" stroke-linejoin="round"/>
<path d="M6.16846 7.5L8.78359 9.58333C9.64415 10.2667 11.0562 10.2667 11.9167 9.58333" stroke="#84818A" stroke-width="1.5" stroke-miterlimit="10" stroke-linecap="round" stroke-linejoin="round"/>
<path d="M16.5955 2.35001L16.8294 2.82501C16.9464 3.05834 17.2388 3.27501 17.4978 3.32501L17.8153 3.37501C18.7678 3.53334 18.9933 4.23334 18.3082 4.92501L18.0158 5.21667C17.8236 5.41667 17.715 5.80001 17.7735 6.06667L17.8153 6.24168C18.0743 7.39168 17.4644 7.83333 16.4618 7.23333L16.2445 7.10834C15.9855 6.95834 15.5678 6.95834 15.3088 7.10834L15.0915 7.23333C14.0806 7.84167 13.4707 7.39168 13.738 6.24168L13.7798 6.06667C13.8383 5.80001 13.7297 5.41667 13.5375 5.21667L13.2451 4.92501C12.56 4.23334 12.7856 3.53334 13.738 3.37501L14.0555 3.32501C14.3062 3.28334 14.6069 3.05834 14.7239 2.82501L14.9579 2.35001C15.409 1.44168 16.1443 1.44168 16.5955 2.35001Z" stroke="#84818A" stroke-width="1.5" stroke-linecap="round" stroke-linejoin="round"/>
</svg>
