<svg width="11" height="12" viewBox="0 0 11 12" fill="none" xmlns="http://www.w3.org/2000/svg">
<path id="Vector" d="M10.45 7.10677C11.1833 6.55292 11.1833 5.44431 10.45 4.89046L4.94817 0.740308C4.04158 0.0572308 2.74817 0.708 2.74817 1.848V10.1511C2.74817 11.292 4.0425 11.9428 4.94817 11.2588L10.45 7.10677ZM0.916666 0.461538C0.916666 0.339131 0.868379 0.221737 0.782424 0.135182C0.69647 0.0486263 0.57989 0 0.458333 0C0.336776 0 0.220197 0.0486263 0.134242 0.135182C0.0482883 0.221737 0 0.339131 0 0.461538V11.5385C0 11.6609 0.0482883 11.7783 0.134242 11.8648C0.220197 11.9514 0.336776 12 0.458333 12C0.57989 12 0.69647 11.9514 0.782424 11.8648C0.868379 11.7783 0.916666 11.6609 0.916666 11.5385V0.461538Z" fill="#001345"/>
</svg>
